<svg xmlns="http://www.w3.org/2000/svg" fill="currentColor" viewBox="0 0 3913 1346" class="h-14 text-slate-900"><path d="M614.903 498.266v29.039a9.268 9.268 0 0 1-1.914 6.204c-17.097 15.331-20.925 37.126-28.192 57.199-2.628 7.244-5.255 14.487-7.332 21.86-7.202 25.563-23.844 38.101-50.446 38.459-27.705.357-55.41 1.624-83.082 2.468-17.778.52-32.993-5.847-43.504-19.911-10.998-14.714-20.373-30.663-30.106-46.319-4.639-7.503-7.948-15.85-12.684-23.289-9.733-15.136-25.759-15.234-35.134 0-6.262 10.134-11.193 21.081-17.129 31.442-5.548 9.745-11.225 19.294-17.519 28.486-14.047 20.529-32.895 31.67-58.654 29.916-30.3-2.046-60.665-3.248-90.998-4.97a29.367 29.367 0 0 1-16.398-5.005 29.42 29.42 0 0 1-10.82-13.314c-6.326-14.812-12.263-29.851-17.583-45.052-6.488-18.449-10.706-37.906-26.343-51.711a9.133 9.133 0 0 1-1.978-6.203c-.195-9.225 0-18.45 0-29.039 12.976-1.364 25.596-2.404 37.988-4.125 14.761-2.046 29.976-2.988 44.023-7.438 27.381-8.738 54.015-4.418 80.779 1.039 22.19 4.515 44.25 9.745 66.245 15.136 5.126 1.235 14.34-1.494 12.685 9.745 0 1.007 4.996 3.995 7.721 4.028 17.064.357 34.128.519 51.193-.325 2.595 0 11.711-.422 7.039-8.868a22.095 22.095 0 0 1 5.353-2.891c38.735-8.022 77.34-16.598 116.27-23.321a62.895 62.895 0 0 1 31.728 4.157c23.617 9.16 48.337 8.121 72.668 10.947L615 498.331m25.426 175.726c1.243-5.721 1.473-11.897 3.862-17.099a229.771 229.771 0 0 0 21.113-84.519 61.814 61.814 0 0 0-.327-11.54c-2.226-17.066-6.318-20.22-25.074-18.367 1.047-7.704.458-15.863 3.535-22.267a19.847 19.847 0 0 1 6.103-6.231A20.016 20.016 0 0 1 657.84 511c2.945.008 5.853.648 8.525 1.877a20.404 20.404 0 0 1 6.957 5.242 38.138 38.138 0 0 1 6.154 19.342c3.699 49.769-12.635 94.499-35.155 137.539l-3.895-.943ZM39.967 543.01c-18.653-1.779-23.276 1.132-24.513 17.561-2.506 33.28 6.511 64.393 19.533 94.698a115.498 115.498 0 0 1 4.687 19.114L34.824 676c-7.813-19.567-16.277-38.81-23.309-58.765A184.212 184.212 0 0 1 .61 538.158c.618-6.306 1.627-13.971 5.534-18.24 3.906-4.27 12.403-8.603 18.165-7.827 4.948.647 10.157 7.762 13.022 13.195 2.474 4.722 1.823 11.061 2.669 17.724"/><path d="M28.113 591c4.973 15.819 9.935 31.648 14.887 47.489L37.903 640A23325.836 23325.836 0 0 1 26 591.611l2.113-.611ZM636 638.487c4.696-13.485 9.38-26.98 14.054-40.487l2.946.691c-3.635 13.791-7.27 27.561-10.904 41.309L636 638.487Zm46.889-444.126a51.672 51.672 0 0 0-36.443-5.833 47.29 47.29 0 0 0-33.557 21.937c.714-11.146 2.27-21.807 3.243-32.403 1.588-19.668 3.08-39.434-1.978-58.844a65.327 65.327 0 0 0-6.258-12.507l-2.334 1.037c3.437 21.58 8.657 43.193-.746 64.806a181.8 181.8 0 0 1-7.198-29.779c-3.826-24.561-10.31-47.794-23.733-68.921a98.649 98.649 0 0 0-11.672-12.961l-2.14 1.652c2.043 4.893 3.956 9.883 6.16 14.711a295.656 295.656 0 0 1 23.182 83.73c.453 7.235.323 14.495-.389 21.71h-2.496c-1.329-3.241-2.821-6.222-3.988-9.43-5.901-15.942-11.316-32.078-17.638-47.859-12.645-31.755-45.813-64.806-74.118-74.527a31538.6 31538.6 0 0 1 20.264 24.432 15.305 15.305 0 0 1-7.878-3.24c-25.938-18.535-51.26-37.653-77.814-55.41-10.44-6.999-22.696-11.373-34.66-16.007-3.89-1.49-8.981 0-13.52.195v2.074c12.969 6.999 26.133 13.576 38.907 21.062 16.827 9.915 28.435 20.738 32.422 29.162-22.501-15.683-43.608-33.213-72.204-37.069l9.726 12.184c-27.397-10.207-53.14-22.974-82.871-18.243 22.695 10.077 48.147 15.035 64.488 36.648-8.592-2.074-16.795-5.12-25.063-7.939-23.279-7.906-46.526-16.201-70-23.395a99.1 99.1 0 0 0-22.696-2.949c-3.047-.226-7.911 0-9.013 1.912-2.788 4.666-6.484 3.402-10.245 3.5-43.382 1.523-83.748 12.442-119.121 38.689-5.122 3.791-9.726 8.198-13.909 11.697l34.757-7.744c.162.713.324 1.393.519 2.106-9.5 5.703-25.29 5.282-22.274 23.266-7.49 3.758-14.98 7.452-22.404 11.276-15.271 7.841-27.851 18.178-35.665 34.056-2.95 5.897-8.786 10.401-13.52 15.326-3.89 4.083-8.073 7.907-12.159 11.827l1.103 1.07 24.835-11.115.94 1.75c-8.559 6.286-17.832 11.957-22.111 23.622l7.392-2.528c-15.693 24.497-27.04 60.367-25.938 81.753l13.844-27.186 1.946.713a119440.47 119440.47 0 0 0-9.403 40.277l1.167.227 9.435-18.502 2.983.907a29677.31 29677.31 0 0 0-8.332 46.498l1.945.292c10.959-26.895 22.015-40.893 35.502-44.068-12.126 12.086-23.992 23.654-22.695 42.124h3.955c-3.047 8.651-6.16 17.206-9.078 25.922-2.918 8.717-7.781 17.919-8.56 27.122-2.593 30.62-5.9 61.565 5.512 91.376a38.275 38.275 0 0 1 1.848 9.429c2.789 25.469 5.415 50.97 8.3 76.439a9974.206 9974.206 0 0 0 11.219 95.362c.778 6.481 2.237 12.962 3.566 20.22 3.242-22.682 6.063-44.651 9.176-66.297v-1.296c3.015-40.763 16.211-59.33 22.696-66.134h-.292c.6-.454 1.173-.941 1.718-1.459.94-.874 1.621-1.393 1.945-1.652 7.393-7.615 2.789-14.906-.583-22.423a176.953 176.953 0 0 1-12.061-113.411c5.933-26.441 24.965-43.517 49.314-53.205 9.727-3.856 21.561-2.139 33.104-3.014l-15.077-11.211a94.067 94.067 0 0 1 58.555 4.018c17.832 7.323 33.59 19.668 50.547 29.972l-3.243-9.461c7.782 2.786 14.817 5.411 21.95 7.776 46.883 15.521 93.474 11.05 139.611-3.24 6.096-1.847 10.894-7.744 16.471-11.535a14.369 14.369 0 0 1 6.485-2.463c21.301-1.977 42.441-2.301 62.251 7.874a14.815 14.815 0 0 0 6.484.907c48.277.259 83.293 30.654 91.14 78.999a120.053 120.053 0 0 1-13.261 75.855 14.417 14.417 0 0 0-1.654 12.411c.714 1.101 1.427 2.171 2.108 3.24l2.01 3.435c1.751 2.722 3.242 5.735 5.414 9.397 27.171 48.896 24.933 66.556 24.382 69.018 1.265 17.66 2.302 35.352 3.243 53.044v5.022a49.5 49.5 0 0 0 7.165-17.433c3.728-22.682 8.527-45.202 10.018-68.046 2.724-41.281 3.405-82.725 4.831-124.136.487-13.771.714-27.607 1.07-41.379.746-26.602 4.215-52.46 20.913-74.786l-1.816-2.138-32.714 17.919a38.023 38.023 0 0 1 10.31-28.515c7.166-7.518 15.368-14.031 23.474-21.289-11.218-5.411-20.394.842-30.801 4.018a334.816 334.816 0 0 1 23.117-34.866 14.301 14.301 0 0 1 9.273-5.314c3.242-.162 6.484 2.787 9.726 4.342-1.199-7.388-2.885-15.262-10.569-19.442-10.473-5.767-18.935.908-27.851 6.481 4.604-18.729 15.627-29.163 29.18-28.45 16.86.843 25.938 11.73 29.18 35.287 9.143-15.359 5.026-33.213-9.921-42.124"/><path fill="#fff" d="M328 280.889c-13.244-8.254-19.087-19.844-24.378-31.757a102.42 102.42 0 0 1-6.136-16.186c-9.251-36.743-34.344-60.213-65.734-78.309a140.493 140.493 0 0 0-59.566-19.262A70.53 70.53 0 0 0 127 146.058c6.256.145 12.498.642 18.698 1.489 35.512 7.122 66.123 23.406 89.625 51.214 10.68 12.56 19.477 26.675 29.637 39.721a297.758 297.758 0 0 0 25.58 29.976c9.576 9.324 21.944 13.273 37.46 12.431Zm-2.483-81.2C345.031 222.955 355.406 250.686 365 279c-1.561-9.708-2.602-19.253-4.781-28.67a591.69 591.69 0 0 0-10.472-38.83c-9.009-29.123-29.271-48.538-55.614-62.387A44.816 44.816 0 0 0 277.578 144 36.77 36.77 0 0 0 262 147.657c16.684 11.26 30.311 24.43 39.027 41.677a282.863 282.863 0 0 1 14.05 36.145c4.879 14.432 10.017 28.67 19.774 40.739 2.244 2.718 4.684 5.275 7.415 8.349.749-28.023-1.3-36.921-16.651-74.975M169 235c5.619 5.71 11.27 11.387 16.857 17.129A78.045 78.045 0 0 0 228 275"/><path fill="#fff" d="M198 178.053c10.487 18.218 20.614 37.184 32.114 55.304a291.01 291.01 0 0 0 28.291 37.573 47.813 47.813 0 0 0 17.767 13.186A48.02 48.02 0 0 0 298 287.912a16.237 16.237 0 0 0-1.927-3.253 317.346 317.346 0 0 1-52.271-65.811c-9.474-15.193-20.157-29.279-36.981-37.347-2.418-1.171-4.868-2.309-7.351-3.253a2.72 2.72 0 0 0-1.47-.227M415.355 287a302.07 302.07 0 0 0 10.531-67.845c1.421-32.415-10.498-59.806-30.687-84.28a43.493 43.493 0 0 0-12.048-10.405A37.68 37.68 0 0 0 367 121.002c40.409 48.623 55.591 103.728 48.452 165.868m21.55-.967c4.632-19.638 9.8-39.18 13.708-58.979 4.38-19.479 2.444-39.891-5.515-58.14a63.878 63.878 0 0 0-2.71-5.297 6.967 6.967 0 0 0-2.363-2.487c5.294 27.293-5.42 52.552-8.823 78.682a95.567 95.567 0 0 0 1.922 40.31c.63 2.067 1.513 4.005 2.269 6.008h1.512v-.097ZM343 161c10.554 16.41 11.69 34.771 14.97 52.578a356.656 356.656 0 0 0 9.937 43.675c2.63 8.351 8.638 15.63 14.093 22.747-1.948-27.102-1.754-54.106-10.651-79.81a79.786 79.786 0 0 0-21.692-33.926c-2.078-1.884-4.449-3.444-6.495-5.167M448 292c28.731-10.871 45.387-83.097 27.782-98L448 292Z"/><path fill="#fff" d="M382 179c1.766 4.966 3.565 9.475 5.004 14.114 5.168 16.924 5.005 34.207 3.566 51.621-.982 12.056-2.911 24.177 1.21 36.265 9.485-7.155 14.49-33.717 11.219-57.763C399.728 199.191 392.467 183.28 382 179Z"/><path d="M518.482 1088.04c10.638 37.22 14.79 71.32 11.157 88.33-1.038-11.41-1.784-24.01-3.243-36.53a167.007 167.007 0 0 0-14.79-53.16 23.16 23.16 0 0 0-4.833-7.58 98.921 98.921 0 0 1-23.579-28.46c-1.103 10.11-2.011 19.77-3.244 29.37-.649 5.09-2.27 10.04-2.822 15.13a53.59 53.59 0 0 0 8.304 34.2c7.589 12.19 15.99 23.92 24.585 35.4a93.46 93.46 0 0 1 16.444 33.45c.551 2.17 1.07 4.34 1.751 7.1.811-1.27 1.265-1.91 1.654-2.59a160.268 160.268 0 0 0 18.877-91.45 7.414 7.414 0 0 0-2.887-4.79c-8.238-5.94-16.703-11.61-25.104-17.38-.691-.39-1.406-.73-2.14-1.04h-.13Zm-56.403 43.25c.389 6.64 1.168 13.29 1.265 19.96 0 8.3-.357 16.63-.552 24.93-2.108-14.68-3.47-29.37-5.286-43.99a50.278 50.278 0 0 0-3.763-14.81 99.28 99.28 0 0 0-10.087-16.37 64.785 64.785 0 0 0-16.671-15.69c.843 5.45 1.881 10.5 2.433 15.56a126.84 126.84 0 0 1-6.098 52.93 6.91 6.91 0 0 0 1.946 8.11c3.244 2.92 6.195 6.03 9.503 8.81 9.731 8.37 19.915 16.44 24.748 29.18 0 .19.356.26.746.52 1.038-1.69 2.108-3.25 3.243-5.03a162.522 162.522 0 0 0 16.833-42.14c1.817-6.93 2.141-12.96-2.14-19.45a126.444 126.444 0 0 1-8.368-18.6c-2.336 4.24-4.801 8.59-7.136 12.96a6.804 6.804 0 0 0-.486 3.25l-.13-.13Zm-70.22-80.68a541.789 541.789 0 0 1 6.908 112.22 939.519 939.519 0 0 0-14.595-120.62c-.454.68-.746.94-.811 1.23a98.308 98.308 0 0 1-15.179 30.28c-7.395 10.82-14.887 21.55-22.315 32.41a15.862 15.862 0 0 0-2.684 7.31c-.272 2.62.116 5.27 1.127 7.7a67.7 67.7 0 0 0 15.763 23.86c9.05 9.43 18.553 18.51 27.407 28.17 3.958 4.86 7.619 9.96 10.963 15.26.227-.39.584-.84.843-1.33a168.354 168.354 0 0 0 19.623-51.21c4.193-18.86 3.07-38.5-3.243-56.76a20.184 20.184 0 0 0-3.698-5.74c-6.098-7.35-12.357-14.58-18.52-21.91a5.482 5.482 0 0 1-.551-1.49l-.941.68-.097-.06Zm-113.422 112.02c-.163-12.61-.487-25.25 0-37.89a680.305 680.305 0 0 1 2.465-37.47c1.167-12.48 3.016-24.77 4.573-37.18-3.244 4.37-6.325 8.85-9.73 12.96-3.406 4.12-7.687 7.85-11.515 11.77a5.523 5.523 0 0 0-1.329 2.01 96.55 96.55 0 0 0-6.487 28.65 136.544 136.544 0 0 0 12.714 63.73c2.919 6.68 6.487 12.97 9.341 19.06 6.13-7.58 11.741-15.17 18.066-22.14 6.324-6.97 14.303-14.16 21.244-21.42a66.984 66.984 0 0 0 15.471-23.63 15.511 15.511 0 0 0-1.362-14.33c-7.654-11.22-15.503-22.3-23.061-33.55a96.921 96.921 0 0 1-14.238-28.04c-.26-.84-.584-1.62-.908-2.43h-1.006c-2.886 19.97-6.195 39.93-8.562 60-2.368 20.06-3.763 39.97-5.612 59.97l-.064-.07Zm-24.229-8.72a126.546 126.546 0 0 1-6.033-52.28c.552-5.25 1.59-10.51 2.401-15.79-.254.06-.504.13-.746.23l-1.168.81c-16.898 13.39-28.445 29.69-29.548 52.22-.616 12.48-2.432 24.89-3.697 37.47-1.622-7.75-1.589-33 0-43.79a7.9 7.9 0 0 0 0-4.09c-2.368-4.66-4.995-9.17-7.136-12.96-4.021 8.17-8.205 16.63-12.26 25.15a6.742 6.742 0 0 0-.259 3.7 157.18 157.18 0 0 0 12.357 38.89c2.757 5.84 6.033 11.45 9.082 17.15h.94c4.736-13.94 16.217-22.07 26.532-31.12 2.627-2.3 5.059-4.86 7.654-7.23a7.059 7.059 0 0 0 2.011-8.39l-.13.03Zm-106.027 23.6c-3.117-30.75.89-61.81 11.709-90.76l-9.731 6.84c-5.741 3.98-11.481 7.91-17.255 11.86a8.794 8.794 0 0 0-3.16 3.41 8.774 8.774 0 0 0-.991 4.53c-.341 6.62-.341 13.25 0 19.87a361.826 361.826 0 0 0 5.806 35.95 129.517 129.517 0 0 0 14.789 36.18c.422-1.5.714-2.27.909-3.05a93.58 93.58 0 0 1 18.195-38.67 349.464 349.464 0 0 0 23.872-34.56 53.928 53.928 0 0 0 6.487-43.85 77.828 77.828 0 0 1-1.914-13.49c-.778-6.9-1.395-13.81-2.141-21.36a102.845 102.845 0 0 1-19.46 24.67c-2.173 2.07-5.222 3.76-6.487 6.29a239.78 239.78 0 0 0-10.476 25.93 202.233 202.233 0 0 0-8.985 47.03c-.616 7.65-1.005 15.33-1.492 22.98l.325.2Zm326.645 49.24a100.518 100.518 0 0 1-12.228 30.37 192.883 192.883 0 0 0 12.357-64.83c-3.243 5.38-5.903 9.95-8.822 14.29-2.919 4.35-6.26 8.66-9.373 12.97-2.563-7.03-4.736-13.91-7.525-20.49-2.789-6.58-8.498-11.53-14.66-16.66.389 1.49.551 2.27.811 2.99a126.924 126.924 0 0 1 7.362 54.87c.008 1.48.34 2.94.973 4.28a156.846 156.846 0 0 1 6.487 17.64c1.126 6.26 1.841 12.6 2.141 18.96.312-.15.606-.34.875-.55a189.575 189.575 0 0 0 43.17-54.01 112.21 112.21 0 0 0 13.201-43.72 7.935 7.935 0 0 0-.746-4.67c-6.292-8.72-12.779-17.24-19.169-25.93-3.243 9.88-6.486 19.45-9.73 29.17a9.741 9.741 0 0 0-.194 2.79 179.905 179.905 0 0 1-4.639 42.46l-.291.07Zm-111.736 91.24a45.978 45.978 0 0 0 11.871-25.31 7.915 7.915 0 0 0-1.46-5.32 105.697 105.697 0 0 1-18.552-31.99 7.663 7.663 0 0 0-1.135-1.49c-3.049 5.51-6.13 10.47-8.628 15.72a30.904 30.904 0 0 0-3.243 10.6c-.908 10.14-1.168 20.32-1.719 30.5-.292 5.45-.584 10.89-.908 16.21a6.85 6.85 0 0 1-.909-3.44c-.583-11.93-1.589-23.86-1.621-35.65 0-12.97-5.871-23.31-13.363-34.04a105.645 105.645 0 0 1-19.785 34.46 6.463 6.463 0 0 0-.811 4.24 39.654 39.654 0 0 0 8.757 21.11c8.92 10.89 18.293 21.45 27.569 32.41 1.2-1.52 2.238-3.24 3.438-4.47 6.876-7.82 13.915-15.5 20.629-23.44l-.13-.1Zm-160.485-125.12c0 22.43 5.157 43.47 12.228 64.22a77.305 77.305 0 0 1-5.384-10.25 155.473 155.473 0 0 1-11.352-59.93 38.37 38.37 0 0 0-1.784-9.5c-2.205-7.52-4.638-14.97-7.006-22.43-.227-.81-.486-1.62-.875-2.82-6.065 7.94-11.709 15.53-17.612 22.95a12.446 12.446 0 0 0-2.53 10.47c.584 3.47 1.006 6.94 1.784 10.37 5.546 24.44 17.936 45.38 34.186 64.05 6.486 7.46 13.654 14.33 20.498 21.49l1.07-.64a63.43 63.43 0 0 1 7.363-35.76 11.218 11.218 0 0 0 1.265-5.93 120.305 120.305 0 0 1 3.243-39.71c1.33-5.54 3.244-10.92 4.768-16.2a54.488 54.488 0 0 0-8.887 7.78c-7.362 8.03-10.022 18.21-12.293 28.59l-1.005.29-17.968-26.74.291-.3Zm56.209-24.27c-15.569 29.85-21.504 60.45-11.449 92.9 6.486 20.74 18.617 37.79 34.769 53.54 1.46-14.68 8.433-25.34 17.223-35.26a89.49 89.49 0 0 0 14.822-25.35 14.968 14.968 0 0 0-2.011-16.6 102.635 102.635 0 0 1-20.92-49.92 8.207 8.207 0 0 0-.941-1.68l-9.535 20.42c-1.752-2.37-3.244-4.44-5.384-7.16-4.184 30.73-6.487 60.61-1.006 90.76a19.12 19.12 0 0 1-1.751-5.29 277.248 277.248 0 0 1-4.022-33.74c-.162-18.67 1.232-37.37 1.946-56.08a8.03 8.03 0 0 0-.195-3.76c-3.632-7.42-7.492-14.78-11.546-22.69v-.09Zm76.48-32.1a91.798 91.798 0 0 1-6.163 8.14c-8.79 9.24-17.612 18.41-26.628 27.42a9.766 9.766 0 0 0-2.56 3.63 9.715 9.715 0 0 0-.684 4.38 73.32 73.32 0 0 0 9.017 34.55c9.438 16.21 19.882 31.58 30.196 47.72 9.73-14.78 19.461-28.72 28.315-43.31a75.809 75.809 0 0 0 11.125-41.13 8.184 8.184 0 0 0-2.173-5.09c-4.249-4.51-8.952-8.56-13.201-12.97-7.07-7.52-13.914-15.3-20.887-22.98-.811 33.49-1.59 67.29-2.4 101.1h-.422c-1.2-33.64-2.368-67.29-3.6-101.75l.065.29Zm82.804 32.48c-2.886 5.87-5.449 11.9-8.757 17.51a17.868 17.868 0 0 0-2.303 11.63 328.423 328.423 0 0 1 .422 71.84c-.292 2.3-.617 4.63-1.038 6.93-.422 2.3-.973 4.83-1.557 7.2-.584 2.36-1.168 4.18-1.784 6.25 5.449-30.21 3.244-60.19-1.168-91.08l-5.286 6.94c-3.244-6.94-6.292-13.46-9.731-20.72-1.589 6.94-2.692 12.97-4.378 18.71-4.054 14-12.033 25.93-20.239 37.86a6.475 6.475 0 0 0-.876 6.16 94.48 94.48 0 0 0 18.001 33.03 64.463 64.463 0 0 1 8.595 11.47c3.244 6.48 5.611 13.71 8.336 20.62 19.72-18.29 36.391-45.58 38.467-77.41 1.362-21.26-7.395-57.21-16.671-67.16l-.033.22Zm-298.362-47.9c0 2.62 0 5.8.26 9.72 0-3.24-.228-6.48-.163-9.72h-.097Zm472.307-104.38c-11.287-26.936-21.893-54.164-37.948-78.799l8.108 3.727c2.238 4.182 4.476 8.396 6.487 12.707 3.244 6.742 6.227 13.614 9.017 20.551a390.66 390.66 0 0 1 7.687 20.745c2.367 6.999 4.378 14.039 6.487 21.069h.162Zm-36.651 20.23c4.314 14.65 10.022 44.31 9.147 50.5-5.709-26.13-12.358-51.86-23.321-76.37.584-2.82 1.103-5.58 1.557-8.3a258.385 258.385 0 0 1 12.617 34.17Zm-75.215-130.536a12.251 12.251 0 0 1-5.189 10.34 70.26 70.26 0 0 1-53.374 3.994 70.208 70.208 0 0 1-40.685-34.755c-2.984-6.062-6.228-8.623-12.974-8.234-9.211.551-18.455 0-27.699 0a30.332 30.332 0 0 1-3.438 0c-20.433-2.528-37.072-.389-46.705 22.69-6.163 14.749-21.861 21.232-38.467 20.875-14.109-.291-28.25-1.102-42.165-2.755-8.432-1.005-11.254-5.608-9.308-15.429 5.773-29.173 18.552-49.951 51.084-54.586 15.795-2.237 31.137-8.136 46.445-12.966a133.692 133.692 0 0 0 24.002-10.438c10.346-5.867 21.244-9.724 31.493-2.593 18.715 12.739 40.576 15.624 61.301 22.139 13.168 4.182 26.823 7.261 39.375 12.772a33.846 33.846 0 0 1 15.471 15.234 165.703 165.703 0 0 1 11.028 33.744l-.195-.032ZM218.401 1084.71a355.342 355.342 0 0 1 13.265-74.56l5.936-3.43c-9.276 25.28-13.979 51.86-19.201 78.08v-.09Zm219.287-85.222 7.266 5.222c1.427 4.5 2.821 9.07 4.022 13.71 1.913 7.23 3.535 14.55 4.962 21.91a367.734 367.734 0 0 1 3.568 21.82c.973 7.32 1.621 14.61 2.4 21.94-5.936-28.62-11.125-57.37-22.218-84.602Zm-298.394 5.902c-12.617 26.22-19.947 54.13-26.304 82.43a276.984 276.984 0 0 1 9.535-50.93 266.737 266.737 0 0 1 15.309-39.703l1.46 8.203Zm-16.542-67.392c-16.054 24.635-26.66 51.863-37.948 78.802 2.174-7.04 4.184-14.1 6.487-21.072 2.303-6.969 4.898-13.906 7.687-20.745 2.79-6.84 5.773-13.809 9.017-20.551 2.108-4.311 4.346-8.525 6.487-12.707l8.108-3.727h.162Zm-44.726 35.008v.356l.194-.356h-.194ZM634.92 842.829a68.086 68.086 0 0 0-1.752-7.845c-3.243-23.533-8.433-47.066-8.822-70.631-.519-29.4 4.995-58.93 4.346-88.297-.583-25.283.357-59.902 1.265-85.056l-12.973 9.433a414.26 414.26 0 0 1-10.736 58.346c-9.925 37.763-16.639 76.401-23.677 114.845-5.936 32.414-14.368 64.31-35.451 90.209-12 14.717-21.082 28.558-17.06 48.103 0 .357-.843.941-1.946 2.075-6.487-21.523-13.33-42.495-19.234-63.694a61.254 61.254 0 0 0-28.898-37.05 425.396 425.396 0 0 0-95.584-42.496 20.63 20.63 0 0 0-19.46 2.172c-16.834 10.924-33.7 10.373-51.019 0a22.028 22.028 0 0 0-16.834-1.912c-26.207 9.724-52.089 20.55-77.842 31.247-29.969 12.35-47.97 34.619-54.36 66.385-1.362 6.775-3.243 13.42-5.189 20.065-2.53 8.849-5.222 17.666-7.849 26.515a195.148 195.148 0 0 1-1.816-22.01 23.974 23.974 0 0 0-4.574-13.16 176.85 176.85 0 0 1-43.786-86.352c-7.005-33.776-12.098-68.071-18.974-101.782-6.162-30.437-16.476-60.324-19.785-91.02 0-.94 0-1.848-.194-2.788H50.78c.778 24.679.778 49.4 0 74.165a182.125 182.125 0 0 0 .324 30.923c4.574 31.345 6.747 62.625 2.757 94.262-3.243 26.126-12.422 51.507-9.179 78.573 2.4 20.226 1.85 40.81 4.703 60.939 2.854 20.13 8.368 39.675 12.682 59.513l2.854-.324 11.839-21.523c0 1.523.357 4.57.746 8.687 0 28.204 3.503 53.094 13.947 77.794.281-11.32 1.442-22.6 3.47-33.74a68.76 68.76 0 0 1 12.195-13.33 184.291 184.291 0 0 0-4.508 83.15c1.459 7.87 3.762 15.59 5.87 24.21l3.017-3.89c3.568-4.6 6.487-10.05 10.833-13.61 9.73-7.98 20.336-15.27 30.91-22.37 16.476-11.05 30.326-24.28 37.656-43.17 1.038-2.69 1.946-5.45 2.854-8.27 3.678-2.63 7.524-5.01 11.514-7.13a205.838 205.838 0 0 0-.778 43.82 136.39 136.39 0 0 0 11.708 45.38c3.438-5.18 6.487-10.14 9.731-14.87 7.2-10.05 17.255-17.02 26.92-24.45 18.163-13.97 31.137-31.34 34.088-54.78.681-5.15.746-10.37.973-15.55l9.731-9.243c-.03.259-.03.52 0 .778.259 8.425.551 16.855 1.102 25.255a89.1 89.1 0 0 0 15.277 46.38c8.206 11.67 16.217 23.4 24.877 35.66 9.568-14.17 18.941-27.85 28.088-41.69a65.473 65.473 0 0 0 10.379-29.88c1.167-11.41 1.719-27.69 2.595-39.128 3.859 3.727 7.265 7.034 9.73 9.468 0 12.96 2.043 29.66 7.557 40.94a93.518 93.518 0 0 0 31.039 34.58 98.297 98.297 0 0 1 31.818 35.37c.195.35.584.58 1.363 1.33 2.238-6.49 4.638-12.52 6.486-18.68 6.844-24.31 6.941-48.97 4.055-73.84v-.19l10.119 4.21a83.878 83.878 0 0 0 25.948 44.74c7.622 6.67 16.217 12.09 24.52 18.15 8.303 6.06 16.574 11.8 24.163 18.47 4.439 4.62 8.475 9.61 12.066 14.92.421-1.3.94-2.7 1.395-4.12 10.184-33.06 9.405-66.03 1.037-98.9 4.022 4.02 8.012 8.41 11.969 13.16a209.102 209.102 0 0 1 2.951 36.5 175.523 175.523 0 0 0 8.011-20.13c2.044-3.63 6.195-12.96 6.844-35.3a162.431 162.431 0 0 0-1.589-36.821 2.153 2.153 0 0 1 0-.454l3.243.292 12.974 22.69a46.637 46.637 0 0 0 2.303-4.959c15.536-48.622 17.514-98.897 16.963-149.399m503.33-25.637c50.16-.362 88.01-10.684 113.55-30.966 25.53-20.282 38.33-50.463 38.39-90.543a92.164 92.164 0 0 0-17.29-56.59 86.879 86.879 0 0 0-49.53-31.69 85.748 85.748 0 0 0 43.37-33.41 107.669 107.669 0 0 0 12.57-74.686 107.669 107.669 0 0 0-39.74-64.479c-27.64-19.497-67.97-29.215-120.97-29.155H971v411.972l167.25-.453Zm1.72-175.201c34.14 0 51.16 17.384 51.16 51.79a42.985 42.985 0 0 1-3.24 18.945 42.888 42.888 0 0 1-11.16 15.643 61.751 61.751 0 0 1-41.29 12.314h-65.11v-98.692h69.64Zm-69.64-160.442h48.63c22.28 0 38.42 3.832 48.44 11.498a44.415 44.415 0 0 1 12.01 16.987 44.53 44.53 0 0 1 2.94 20.589c.48 6.397-.5 12.821-2.87 18.783a42.019 42.019 0 0 1-10.81 15.623c-9.23 7.787-24.69 11.771-46.36 11.952h-51.98v-95.432Zm558.25 335.553h106.4v-4.256l-86.39-166.237a123.286 123.286 0 0 0 54.33-45.815 133.761 133.761 0 0 0 17.48-71.167c0-39.537-13.79-70.171-41.38-91.902-27.59-21.73-65.77-32.565-114.55-32.505h-161.72v411.972h99.6V671.378h53.79l72.44 145.684v-.09Zm-126.77-335.553h62.84c7.73-.55 15.48.51 22.78 3.113a55.982 55.982 0 0 1 19.6 12.007 67.567 67.567 0 0 1 14.41 41.695c0 15.119-5.08 29.8-14.41 41.695a56.225 56.225 0 0 1-19.72 11.924 56.217 56.217 0 0 1-22.84 3.016h-62.84v-113.36l.18-.09Zm592.2 87.102h-155.65V481.69h185.08V405h-284.69v411.972h283.79v-76.419h-184.18v-98.692h156.2v-73.612l-.55.272ZM2482.48 405h-84.31l-56.59 258.32L2294.31 405h-98.52l87.75 411.972h102.68l54.33-234.869 55.24 234.869h102.68L2685.94 405h-98.52l-47.26 258.32L2482.75 405h-.27Zm440.8 411.972c30.45.223 60.39-7.887 86.56-23.451a159.768 159.768 0 0 0 60.4-64.558 196.17 196.17 0 0 0 21.73-92.806v-53.421a195.717 195.717 0 0 0-22.63-91.539 160.818 160.818 0 0 0-60.85-63.38 168.619 168.619 0 0 0-86.66-22.636H2808.1v411.971l115.18-.18Zm.81-396.67c27.63.176 54.69 7.91 78.24 22.364a146.589 146.589 0 0 1 54.96 59.034 178.71 178.71 0 0 1 19.65 83.753v52.877c.2 29.196-6.8 57.992-20.37 83.843a147.023 147.023 0 0 1-55.6 58.853 151.143 151.143 0 0 1-78.87 21.096h-98.7v-381.73l100.69-.09Zm542.77 177.102H3260.4V420.392h235.43V405.09h-250.55v411.972h250.55V801.76H3260.4V612.796h206.64v-15.302l-.18-.09ZM3602.68 405h-16.3l153.94 411.972h18.65L3912.91 405h-16.66L3757.8 776.77l-8.15 24.9-8.24-24.9L3603.04 405h-.36Z"/></svg>